# Blender v2.74 (sub 0) OBJ File: 'DNA_Needle.blend'
# www.blender.org
o Vial_Cube.001
v -0.500000 1.500000 -3.500000
v -0.500000 3.500000 -3.500000
v -0.500000 1.500000 -4.500000
v -0.500000 3.500000 -4.500000
v 0.500000 1.500000 -3.500000
v 0.500000 3.500000 -3.500000
v 0.500000 1.500000 -4.500000
v 0.500000 3.500000 -4.500000
v -0.500000 4.500000 -3.500000
v -0.500000 4.500000 -4.500000
v 0.500000 4.500000 -4.500000
v 0.500000 4.500000 -3.500000
vt 0.750000 0.187500
vt 0.750000 -0.000000
vt 0.812500 0.000000
vt 0.714426 0.000197
vt 0.999803 0.000197
vt 0.999803 0.285574
vt 0.812500 0.187549
vt 0.812500 0.250049
vt 0.750000 0.249951
vt 0.937500 0.062500
vt 0.875000 0.062500
vt 0.875000 0.000000
vt 0.714426 0.285574
vt 0.937500 0.000000
vn -1.000000 0.000000 0.000000
vn 0.000000 0.000000 -1.000000
vn 1.000000 0.000000 0.000000
vn 0.000000 0.000000 1.000000
vn 0.000000 -1.000000 0.000000
vn 0.000000 1.000000 0.000000
s off
f 4/1/1 3/2/1 1/3/1
f 8/1/2 7/2/2 3/3/2
f 6/1/3 5/2/3 7/3/3
f 2/1/4 1/2/4 5/3/4
f 3/4/5 7/5/5 5/6/5
f 6/7/4 12/8/4 9/9/4
f 11/10/6 10/11/6 9/12/6
f 8/7/3 11/8/3 12/9/3
f 4/7/2 10/8/2 11/9/2
f 2/7/1 9/8/1 10/9/1
f 2/7/1 4/1/1 1/3/1
f 4/7/2 8/1/2 3/3/2
f 8/7/3 6/1/3 7/3/3
f 6/7/4 2/1/4 5/3/4
f 1/13/5 3/4/5 5/6/5
f 2/1/4 6/7/4 9/9/4
f 12/14/6 11/10/6 9/12/6
f 6/1/3 8/7/3 12/9/3
f 8/1/2 4/7/2 11/9/2
f 4/1/1 2/7/1 10/9/1
o Needle_Cube
v 1.000000 -1.000000 -1.000000
v 1.000000 -1.000000 1.000000
v -1.000000 -1.000000 1.000000
v -1.000000 -1.000000 -1.000000
v 1.000000 1.000000 -0.999999
v 0.999999 1.000000 1.000001
v -1.000000 1.000000 1.000000
v -1.000000 1.000000 -1.000000
v 0.999999 -1.000000 3.000000
v -1.000001 -1.000000 3.000000
v 0.999999 1.000000 3.000000
v -1.000001 1.000000 3.000000
v 1.000001 -0.999999 -5.000000
v -0.999999 -0.999999 -5.000000
v 1.000001 1.000001 -5.000000
v -0.999999 1.000001 -5.000000
v -0.999999 1.000000 -3.000000
v 1.000001 1.000000 -3.000000
v -0.999999 -1.000000 -3.000000
v 1.000000 -1.000000 -3.000000
v 0.250001 1.000001 -4.250000
v -0.249999 1.000001 -4.250000
v 0.250001 1.000001 -3.750000
v -0.249999 1.000001 -3.750000
v 0.250001 3.000001 -4.250000
v -0.249999 3.000001 -4.250000
v 0.250001 3.000001 -3.750000
v -0.249999 3.000001 -3.750000
v 0.249999 -0.250000 3.000000
v -0.250001 -0.250000 3.000000
v 0.249999 0.250000 3.000000
v -0.250001 0.250000 3.000000
v 0.249999 -0.250000 7.000000
v -0.250001 -0.250000 7.000000
v 0.249999 0.250000 7.000000
v -0.250001 0.250000 7.000000
v 0.500000 -1.000000 -0.500000
v 0.500000 -1.000000 0.500000
v -0.500000 -1.000000 -0.500000
v -0.500000 -1.000000 0.500000
v 0.500000 -5.000000 -0.500000
v 0.500000 -5.000000 0.500000
v -0.500000 -5.000000 -0.500000
v -0.500000 -5.000000 0.500000
v -0.500000 -3.000000 0.500000
v -0.500000 -3.000000 -0.500000
v 0.500000 -3.000000 0.500000
v 0.500000 -3.000000 -0.500000
v 0.249999 0.250000 5.000000
v -0.250001 0.250000 5.000000
v -0.250001 -0.250000 5.000000
v 0.249999 -0.250000 5.000000
vt 0.249933 0.250000
vt 0.218750 0.281250
vt 0.156250 0.281250
vt 0.250076 0.375000
vt 0.125076 0.375000
vt 0.124924 0.250000
vt 0.250000 0.375000
vt 0.124931 0.375000
vt 0.125069 0.250000
vt 0.000360 0.375000
vt 0.000208 0.250000
vt 0.125000 0.375000
vt 0.125000 0.250000
vt 0.250000 0.250000
vt 0.374924 0.250000
vt 0.406250 0.281250
vt 0.406250 0.343750
vt 0.907555 0.908274
vt 0.726260 0.908274
vt 0.794245 0.840288
vt -0.000000 0.375000
vt 0.000000 0.250000
vt -0.000069 0.375000
vt 0.000069 0.250000
vt 0.000066 0.375000
vt -0.000066 0.250000
vt 0.625000 0.375000
vt 0.500000 0.375000
vt 0.500000 0.250000
vt 0.375000 0.250000
vt 0.499933 0.250000
vt 0.500066 0.375000
vt 0.375000 0.375000
vt 0.375076 0.375000
vt 0.281250 0.000000
vt 0.281250 0.125000
vt 0.250000 0.125000
vt 0.468750 0.281250
vt 0.468750 0.343750
vt 0.406250 0.000000
vt 0.406250 0.031250
vt 0.375000 0.031250
vt 0.281250 0.000000
vt 0.531250 0.125000
vt 0.531250 0.250000
vt 0.726260 0.726979
vt 0.794245 0.794964
vt 0.839569 0.840288
vt 0.839569 0.794964
vt 0.907555 0.726979
vt 0.656250 0.031250
vt 0.625000 0.031250
vt 0.625000 0.000000
vt 0.531250 0.250000
vt 0.363669 0.865826
vt 0.182374 0.865826
vt 0.182374 0.820502
vt -0.000000 0.125000
vt -0.000000 0.000359
vt 0.062500 0.000360
vt 0.156250 0.343750
vt 0.218750 0.343750
vt 0.187500 0.062500
vt 0.125000 0.062500
vt 0.125000 -0.000000
vt -0.000000 0.000000
vt 0.062500 0.000000
vt 0.062500 0.125000
vt 0.544964 0.865826
vt 0.363669 0.820502
vt 0.531250 0.000000
vt 0.500000 0.125000
vt 0.625000 0.250000
vt 0.250000 0.000000
vt 0.375000 0.000000
vt 0.656250 0.000000
vt 0.187500 0.000000
vt 0.062500 0.250000
vt 0.544964 0.820502
vt 0.500000 0.000000
vn 0.000000 -1.000000 0.000000
vn 0.000000 1.000000 0.000000
vn 1.000000 0.000000 0.000000
vn -1.000000 -0.000000 -0.000000
vn -0.000000 0.000000 1.000000
vn 0.000000 0.000000 -1.000000
s off
f 16/15/7 51/16/7 52/17/7
f 20/18/8 19/19/8 18/20/8
f 17/21/9 18/22/9 14/23/9
f 19/19/8 24/24/8 23/25/8
f 15/26/10 19/27/10 20/28/10
f 30/29/8 35/30/8 36/31/8
f 23/32/11 24/33/11 44/34/11
f 15/26/10 22/35/10 24/36/10
f 18/22/9 23/37/9 21/38/9
f 14/19/7 21/39/7 22/40/7
f 25/41/12 26/42/12 28/43/12
f 29/44/10 28/43/10 26/42/10
f 32/44/9 25/43/9 27/42/9
f 31/29/7 26/45/7 25/46/7
f 13/18/7 16/15/7 31/29/7
f 13/28/9 32/44/9 30/47/9
f 20/28/10 29/44/10 31/47/10
f 17/15/8 30/29/8 29/48/8
f 35/49/11 39/50/11 40/51/11
f 28/46/8 29/48/8 36/31/8
f 27/45/8 33/52/8 35/30/8
f 28/46/8 34/53/8 33/52/8
f 39/54/8 37/55/8 38/56/8
f 36/57/10 40/50/10 38/51/10
f 33/57/9 37/50/9 39/51/9
f 34/49/12 38/50/12 37/51/12
f 62/58/8 48/59/8 47/43/8
f 24/33/11 22/60/11 42/61/11
f 23/32/11 43/62/11 41/63/11
f 22/60/11 21/64/11 41/63/11
f 47/65/11 48/66/11 46/67/11
f 63/58/10 46/59/10 48/43/10
f 61/58/9 47/68/9 45/43/9
f 64/69/7 45/70/7 46/71/7
f 58/72/10 55/73/10 56/74/10
f 15/20/7 52/17/7 50/75/7
f 13/18/7 49/76/7 51/16/7
f 14/19/7 50/75/7 49/76/7
f 53/77/7 54/78/7 56/79/7
f 57/72/11 56/80/11 54/81/11
f 60/72/12 53/80/12 55/81/12
f 59/72/9 54/73/9 53/74/9
f 50/36/9 59/72/9 60/82/9
f 49/36/12 60/72/12 58/82/12
f 52/36/11 57/72/11 59/82/11
f 51/36/10 58/72/10 57/82/10
f 41/83/7 64/69/7 63/84/7
f 43/85/9 61/58/9 64/86/9
f 42/85/10 63/58/10 62/86/10
f 44/85/8 62/58/8 61/86/8
f 15/20/7 16/15/7 52/17/7
f 17/15/8 20/18/8 18/20/8
f 13/28/9 17/21/9 14/23/9
f 18/20/8 19/19/8 23/25/8
f 16/21/10 15/26/10 20/28/10
f 29/48/8 30/29/8 36/31/8
f 43/62/11 23/32/11 44/34/11
f 19/27/10 15/26/10 24/36/10
f 14/23/9 18/22/9 21/38/9
f 15/20/7 14/19/7 22/40/7
f 27/87/12 25/41/12 28/43/12
f 31/47/10 29/44/10 26/42/10
f 30/47/9 32/44/9 27/42/9
f 32/48/7 31/29/7 25/46/7
f 32/48/7 13/18/7 31/29/7
f 17/21/9 13/28/9 30/47/9
f 16/21/10 20/28/10 31/47/10
f 20/18/8 17/15/8 29/48/8
f 36/88/11 35/49/11 40/51/11
f 34/53/8 28/46/8 36/31/8
f 30/29/8 27/45/8 35/30/8
f 27/45/8 28/46/8 33/52/8
f 40/89/8 39/54/8 38/56/8
f 34/88/10 36/57/10 38/51/10
f 35/88/9 33/57/9 39/51/9
f 33/88/12 34/49/12 37/51/12
f 61/86/8 62/58/8 47/43/8
f 44/34/11 24/33/11 42/61/11
f 21/64/11 23/32/11 41/63/11
f 42/61/11 22/60/11 41/63/11
f 45/90/11 47/65/11 46/67/11
f 62/86/10 63/58/10 48/43/10
f 64/86/9 61/58/9 45/43/9
f 63/84/7 64/69/7 46/71/7
f 57/82/10 58/72/10 56/74/10
f 14/19/7 15/20/7 50/75/7
f 16/15/7 13/18/7 51/16/7
f 13/18/7 14/19/7 49/76/7
f 55/91/7 53/77/7 56/79/7
f 59/82/11 57/72/11 54/81/11
f 58/82/12 60/72/12 55/81/12
f 60/82/9 59/72/9 53/74/9
f 49/92/9 50/36/9 60/82/9
f 51/92/12 49/36/12 58/82/12
f 50/92/11 52/36/11 59/82/11
f 52/92/10 51/36/10 57/82/10
f 42/93/7 41/83/7 63/84/7
f 41/94/9 43/85/9 64/86/9
f 44/94/10 42/85/10 62/86/10
f 43/94/8 44/85/8 61/86/8
o Vial_Content_Cube.002
v -0.375000 1.750000 -3.625000
v -0.375000 3.750000 -3.625000
v -0.375000 1.750000 -4.375000
v -0.375000 3.750000 -4.375000
v 0.375000 1.750000 -3.625000
v 0.375000 3.750000 -3.625000
v 0.375000 1.750000 -4.375000
v 0.375000 3.750000 -4.375000
vt 0.499792 -0.000000
vt 0.500208 0.750000
vt 0.000200 0.750000
vt -0.000000 0.000000
vt 0.500000 0.000000
vt 0.500000 0.750000
vt 0.000000 0.750000
vt 0.750000 0.000000
vt 0.750000 0.250000
vt 0.500000 0.250000
vt -0.000217 0.000000
vn -1.000000 0.000000 0.000000
vn 0.000000 0.000000 -1.000000
vn 1.000000 0.000000 0.000000
vn 0.000000 0.000000 1.000000
vn 0.000000 -1.000000 0.000000
vn 0.000000 1.000000 0.000000
s off
f 68/95/13 67/96/13 65/97/13
f 72/98/14 71/99/14 67/100/14
f 70/101/15 69/98/15 71/99/15
f 66/101/16 65/98/16 69/99/16
f 67/99/17 71/102/17 69/103/17
f 70/102/18 72/103/18 68/104/18
f 66/105/13 68/95/13 65/97/13
f 68/101/14 72/98/14 67/100/14
f 72/100/15 70/101/15 71/99/15
f 70/100/16 66/101/16 69/99/16
f 65/104/17 67/99/17 69/103/17
f 66/99/18 70/102/18 68/104/18
