# Blender v2.74 (sub 0) OBJ File: 'GooglyEye.blend'
# www.blender.org
o Cube
v 1.000000 -1.000000 -0.250000
v 1.000000 -1.000000 0.250000
v -1.000000 -1.000000 0.250000
v -1.000000 -1.000000 -0.250000
v 1.000000 1.000000 -0.250000
v 0.999999 1.000000 0.250000
v -1.000000 1.000000 0.250000
v -1.000000 1.000000 -0.250000
v 0.000000 -1.000000 -0.250000
v 0.000000 -1.000000 0.250000
v 0.000000 1.000000 -0.250000
v -0.000001 1.000000 0.250000
v 1.000000 0.000000 -0.250000
v 1.000000 0.000000 0.250000
v -1.000000 0.000000 0.250000
v -1.000000 0.000000 -0.250000
v 0.000000 0.000000 -0.250000
v -0.000000 0.000000 0.250000
vt 0.500000 0.250000
vt -0.000000 0.250000
vt 0.000000 0.000000
vt 0.000000 0.000133
vt 0.500000 0.000133
vt 1.000000 0.250000
vt 0.500000 0.500000
vt 0.500000 1.000000
vt 0.000000 1.000000
vt 0.000000 0.750000
vt -0.000000 0.500000
vt 1.000000 0.500000
vt 1.000000 1.000000
vt 0.500000 0.750000
vt 0.999866 0.000133
vt 0.500000 0.000000
vt 1.000000 0.750000
vt 0.999867 0.250000
vt 1.000000 0.000000
vt 1.000000 0.000133
vn 0.000000 -1.000000 0.000000
vn 0.000000 1.000000 0.000000
vn 1.000000 -0.000000 0.000000
vn -0.000000 0.000000 1.000000
vn -1.000000 -0.000000 -0.000000
vn 0.000000 0.000000 -1.000000
s off
f 10/1/1 3/2/1 4/3/1
f 8/2/2 7/4/2 12/5/2
f 13/6/3 5/1/3 6/7/3
f 12/8/4 7/9/4 15/10/4
f 7/11/5 8/2/5 16/6/5
f 9/7/6 4/11/6 16/2/6
f 1/12/6 9/7/6 17/1/6
f 6/13/4 12/8/4 18/14/4
f 11/1/2 12/5/2 6/15/2
f 2/6/1 10/1/1 9/16/1
f 14/17/4 18/14/4 10/7/4
f 13/6/6 17/1/6 11/5/6
f 17/1/6 16/2/6 8/4/6
f 15/12/5 16/6/5 4/1/5
f 18/14/4 15/10/4 3/11/4
f 13/6/3 14/12/3 2/11/3
f 9/16/1 10/1/1 4/3/1
f 11/1/2 8/2/2 12/5/2
f 14/12/3 13/6/3 6/7/3
f 18/14/4 12/8/4 15/10/4
f 15/12/5 7/11/5 16/6/5
f 17/1/6 9/7/6 16/2/6
f 13/6/6 1/12/6 17/1/6
f 14/17/4 6/13/4 18/14/4
f 5/18/2 11/1/2 6/15/2
f 1/19/1 2/6/1 9/16/1
f 2/12/4 14/17/4 10/7/4
f 5/20/6 13/6/6 11/5/6
f 11/5/6 17/1/6 8/4/6
f 3/7/5 15/12/5 4/1/5
f 10/7/4 18/14/4 3/11/4
f 1/2/3 13/6/3 2/11/3
