# Blender v2.74 (sub 0) OBJ File: 'Camera_Stationary.blend'
# www.blender.org
o Body_Cube.001
v -1.000000 0.250000 0.500000
v -1.000000 2.250000 0.500000
v -1.000000 0.250000 -3.500000
v -1.000000 2.250000 -3.500000
v 1.000000 0.250000 0.500000
v 1.000000 2.250000 0.500000
v 1.000000 0.250000 -3.500000
v 1.000000 2.250000 -3.500000
v -0.500000 1.725000 -3.500000
v -0.500000 0.725000 -3.500000
v 0.500000 1.725000 -3.500000
v 0.500000 0.725000 -3.500000
v -0.500000 1.725000 -4.000000
v -0.500000 0.725000 -4.000000
v 0.500000 1.725000 -4.000000
v 0.500000 0.725000 -4.000000
vt 0.615385 0.615385
vt 0.615385 0.923077
vt 0.000000 0.923077
vt 0.923077 0.923077
vt 0.807692 0.807692
vt 0.807692 0.730769
vt 0.000000 0.615385
vt 0.615385 0.307692
vt 0.923077 0.307692
vt 0.000000 0.307692
vt 0.961538 0.307692
vt 0.807692 0.307692
vt 0.807692 0.115385
vt 0.923077 0.615385
vt 0.730769 0.730769
vt 0.730769 0.807692
vt 0.961538 0.115385
vt 0.615385 0.115385
vn -1.000000 0.000000 0.000000
vn 0.000000 0.000000 -1.000000
vn 1.000000 0.000000 0.000000
vn 0.000000 0.000000 1.000000
vn 0.000000 -1.000000 0.000000
vn 0.000000 1.000000 0.000000
s off
f 4/1/1 3/2/1 1/3/1
f 3/4/2 10/5/2 12/6/2
f 6/3/3 5/7/3 7/1/3
f 2/1/4 1/8/4 5/9/4
f 3/8/5 7/1/5 5/7/5
f 8/7/6 4/10/6 2/8/6
f 10/11/5 14/12/5 16/13/5
f 7/14/2 12/6/2 11/15/2
f 8/1/2 11/15/2 9/16/2
f 3/4/2 4/2/2 9/16/2
f 15/13/2 16/12/2 14/8/2
f 12/13/3 16/17/3 15/11/3
f 11/13/6 15/17/6 13/11/6
f 9/13/1 13/17/1 14/11/1
f 2/7/1 4/1/1 1/3/1
f 7/14/2 3/4/2 12/6/2
f 8/2/3 6/3/3 7/1/3
f 6/14/4 2/1/4 5/9/4
f 1/10/5 3/8/5 5/7/5
f 6/1/6 8/7/6 2/8/6
f 12/17/5 10/11/5 16/13/5
f 8/1/2 7/14/2 11/15/2
f 4/2/2 8/1/2 9/16/2
f 10/5/2 3/4/2 9/16/2
f 13/18/2 15/13/2 14/8/2
f 11/12/3 12/13/3 15/11/3
f 9/12/6 11/13/6 13/11/6
f 10/12/1 9/13/1 14/11/1
o Base_Cube
v 0.250000 -0.250000 -2.000000
v 0.250000 -0.250000 2.000000
v -0.250000 -0.250000 2.000000
v -0.250000 -0.250000 -2.000001
v 0.250000 0.250000 -1.999999
v 0.250000 0.250000 2.000001
v -0.250000 0.250000 1.999999
v -0.250000 0.250000 -2.000000
v 0.250000 -0.250000 0.500000
v -0.250000 -0.250000 0.499999
v 0.250000 0.250000 0.500001
v -0.250000 0.250000 0.500000
vt 0.230769 0.153846
vt 0.000000 0.153846
vt 0.000000 0.000000
vt 0.230769 0.307692
vt 0.000000 0.307692
vt 0.230769 0.000000
vt 0.615385 0.000000
vt 0.615385 0.153846
vt 0.384615 0.307692
vt 0.384615 0.153846
vn 0.000000 -1.000000 0.000000
vn 0.000000 1.000000 0.000000
vn 1.000000 0.000000 0.000000
vn -1.000000 -0.000000 -0.000000
vn 0.000000 0.000000 -1.000000
s off
f 25/19/7 18/20/7 19/21/7
f 27/19/8 28/22/8 23/23/8
f 27/19/9 22/20/9 18/21/9
f 28/24/10 24/25/10 20/26/10
f 17/27/11 20/22/11 24/19/11
f 23/21/10 28/24/10 26/19/10
f 21/26/9 27/19/9 25/24/9
f 17/26/7 25/19/7 26/24/7
f 26/24/7 25/19/7 19/21/7
f 22/20/8 27/19/8 23/23/8
f 25/24/9 27/19/9 18/21/9
f 26/19/10 28/24/10 20/26/10
f 21/28/11 17/27/11 24/19/11
f 19/20/10 23/21/10 26/19/10
f 17/25/9 21/26/9 25/24/9
f 20/25/7 17/26/7 26/24/7
